<svg width="24" height="24" viewBox="0 0 18 18" fill="none" xmlns="http://www.w3.org/2000/svg">
<g id="date-svgrepo-com 1">
<path id="Vector" d="M5.03656 16.2113H13.4944C14.0552 16.2113 14.593 15.9798 14.9896 15.5677C15.3861 15.1557 15.6089 14.5968 15.6089 14.0141V5.22536C15.6089 4.83687 15.4604 4.4643 15.196 4.18959C14.9317 3.91489 14.5731 3.76057 14.1992 3.76057H12.7896V2.29578C12.7896 2.10154 12.7153 1.91525 12.5832 1.7779C12.451 1.64055 12.2717 1.56339 12.0848 1.56339C11.8979 1.56339 11.7186 1.64055 11.5864 1.7779C11.4542 1.91525 11.38 2.10154 11.38 2.29578V3.76057H7.15102V2.29578C7.15102 2.10154 7.07677 1.91525 6.94459 1.7779C6.81241 1.64055 6.63313 1.56339 6.4462 1.56339C6.25927 1.56339 6.08 1.64055 5.94782 1.7779C5.81564 1.91525 5.74138 2.10154 5.74138 2.29578V3.76057H4.33173C3.95787 3.76057 3.59932 3.91489 3.33496 4.18959C3.0706 4.4643 2.92209 4.83687 2.92209 5.22536V14.0141C2.92209 14.5968 3.14486 15.1557 3.5414 15.5677C3.93794 15.9798 4.47576 16.2113 5.03656 16.2113ZM4.33173 9.25353C4.33173 9.1564 4.36886 9.06326 4.43495 8.99458C4.50104 8.92591 4.59068 8.88733 4.68414 8.88733H13.8468C13.9403 8.88733 14.0299 8.92591 14.096 8.99458C14.1621 9.06326 14.1992 9.1564 14.1992 9.25353V14.0141C14.1992 14.2083 14.125 14.3946 13.9928 14.532C13.8606 14.6693 13.6814 14.7465 13.4944 14.7465H5.03656C4.84963 14.7465 4.67035 14.6693 4.53817 14.532C4.40599 14.3946 4.33173 14.2083 4.33173 14.0141V9.25353Z" fill="#A0A0A0"/>
</g>
</svg>
